- 
http://www.Speed.Cd 
       
http://www.Speed.Cd      fast  and The Hottest Private Tracker on the net

(((--Registration will be open on june every weekend--)))

Please Seed back to make the speed Faster!!!

------------------nfo--------------------------
-








































          
          
              
              
                    
                    
                    
                    

Prom.2011.R5.Xvid.AC3-SiC

Poster:
[img]http://img543.imageshack.us/img543/9656/prom2011movieposter.jpg[/img]

IMDB Link:
http://www.imdb.com/title/tt1604171/

Description:
A group of teenagers get ready for their high school prom.

MediaInfo:
General
Complete name                    : Prom.2011.R5.Xvid.AC3-SiC.avi
Format                           : AVI
Format/Info                      : Audio Video Interleave
File size                        : 1.30 GiB
Duration                         : 1h 39mn
Overall bit rate                 : 1 863 Kbps

Video
ID                               : 0
Format                           : MPEG-4 Visual
Format profile                   : Advanced Simple@L5
Format settings, BVOP            : Yes
Format settings, QPel            : No
Format settings, GMC             : No warppoints
Format settings, Matrix          : Default (H.263)
Muxing mode                      : Packed bitstream
Codec ID                         : XVID
Codec ID/Hint                    : XviD
Duration                         : 1h 39mn
Bit rate                         : 1 471 Kbps
Width                            : 720 pixels
Height                           : 400 pixels
Display aspect ratio             : 16:9
Frame rate                       : 25.000 fps
Resolution                       : 8 bits
Colorimetry                      : 4:2:0
Scan type                        : Progressive
Bits/(Pixel*Frame)               : 0.204
Stream size                      : 1.02 GiB (79%)
Writing library                  : XviD 64

Audio
ID                               : 1
Format                           : AC-3
Format/Info                      : Audio Coding 3
Format_Settings_ModeExtension    : CM (complete main)
Codec ID                         : 2000
Duration                         : 1h 39mn
Bit rate mode                    : Constant
Bit rate                         : 384 Kbps
Channel(s)                       : 6 channels
Channel positions                : Front: L C R, Side: L R, LFE
Sampling rate                    : 48.0 KHz
Stream size                      : 273 MiB (21%)
Alignment                        : Aligned on interleaves
Interleave, duration             : 64 ms (1.60 video frames)
Interleave, preload duration     : 192 ms
Title                            : 6ch English

Screenshots:
[img]http://img193.imageshack.us/img193/3506/prom2011r5xvidac3sicavi.png[/img]
[img]http://img855.imageshack.us/img855/7454/vlcsnap2011080603h06m47.png[/img]
[img]http://img69.imageshack.us/img69/6666/vlcsnap2011080603h06m55.png[/img]
[img]http://img18.imageshack.us/img18/2653/vlcsnap2011080603h27m30.png[/img]
[img]http://img23.imageshack.us/img23/5915/vlcsnap2011080603h29m46.png[/img]

Note :   N/A 

Source : Vupusknoy.2011.DVD9 Thanks!!!

Encoder: Bezauk

Enjoy!

Respects to CaptainHomey, Cyanide, CM8, Rx, THC, ELEKTRI4KA, 
Killerhz, PA, YeFsTe, BoxSlots, MrRep and everyone in the struggle...